<?xml version="1.0" encoding="UTF-8"?>
<svg xmlns="http://www.w3.org/2000/svg" xmlns:xlink="http://www.w3.org/1999/xlink" viewBox="0 0 30 30" width="30px" height="30px">
<g id="surface151883676">
<path style=" stroke:none;fill-rule:nonzero;fill:rgb(7.450981%,39.607844%,7.058824%);fill-opacity:1;" d="M 25.164062 5.175781 C 24.765625 5.1875 24.398438 5.398438 24.1875 5.738281 L 12.898438 23.007812 L 5.585938 16.6875 C 5.273438 16.363281 4.800781 16.238281 4.367188 16.375 C 3.9375 16.507812 3.617188 16.875 3.542969 17.320312 C 3.464844 17.769531 3.648438 18.21875 4.011719 18.488281 L 12.375 25.726562 C 12.636719 25.949219 12.984375 26.046875 13.324219 25.996094 C 13.667969 25.945312 13.96875 25.75 14.15625 25.460938 L 26.210938 7.050781 C 26.46875 6.671875 26.492188 6.183594 26.269531 5.785156 C 26.046875 5.390625 25.617188 5.152344 25.164062 5.175781 Z M 25.164062 5.175781 "/>
</g>
</svg>
